<?xml version="1.0" encoding="UTF-8" standalone="no"?><!DOCTYPE svg PUBLIC "-//W3C//DTD SVG 1.1//EN" "http://www.w3.org/Graphics/SVG/1.1/DTD/svg11.dtd"><svg width="100%" height="100%" viewBox="0 0 3000 3000" version="1.1" xmlns="http://www.w3.org/2000/svg" xmlns:xlink="http://www.w3.org/1999/xlink" xml:space="preserve" xmlns:serif="http://www.serif.com/" style="fill-rule:evenodd;clip-rule:evenodd;stroke-linejoin:round;stroke-miterlimit:2;"><rect x="0" y="0" width="3000" height="3000" style="fill:#8a2be2;"/><g><path d="M1008.14,1264.73c-67.614,-67.614 -180.861,-63.99 -252.944,8.094c-0.001,0 -0.001,0 -0.001,0.001c-72.084,72.083 -75.708,185.33 -8.094,252.943c205.486,205.486 597.526,597.527 597.526,597.527l261.039,-261.039c-0,0 -392.041,-392.04 -597.526,-597.526Z" style="fill:#ffc836;"/><clipPath id="_clip1"><path d="M1008.14,1264.73c-67.614,-67.614 -180.861,-63.99 -252.944,8.094c-0.001,0 -0.001,0 -0.001,0.001c-72.084,72.083 -75.708,185.33 -8.094,252.943c205.486,205.486 597.526,597.527 597.526,597.527l261.039,-261.039c-0,0 -392.041,-392.04 -597.526,-597.526Z"/></clipPath><g clip-path="url(#_clip1)"><path d="M862.461,1641.31c-0,0 -0,0 -0,-0c16.46,-16.46 25.707,-38.784 25.707,-62.062c-0,-23.278 -9.247,-45.603 -25.707,-62.063c-20.849,-20.848 -44.096,-44.095 -64.944,-64.944c-16.46,-16.46 -38.785,-25.707 -62.063,-25.707c-23.277,0 -45.602,9.247 -62.062,25.707c0,0 0,0.001 0,0.001l189.069,189.068Z" style="fill:#fbf4e2;"/></g><path d="M2292.4,1175.53c34.616,-34.615 54.063,-81.564 54.063,-130.518c0,-48.955 -19.447,-95.904 -54.063,-130.519c0,-0.001 -0,-0.001 -0,-0.001c-34.616,-34.616 -81.565,-54.063 -130.519,-54.063c-48.954,0 -95.903,19.447 -130.519,54.063c-287.035,287.034 -947.773,947.772 -947.773,947.772l261.039,261.039c0,-0 660.738,-660.738 947.772,-947.773Z" style="fill:#ffc836;"/><clipPath id="_clip2"><path d="M2292.4,1175.53c34.616,-34.615 54.063,-81.564 54.063,-130.518c0,-48.955 -19.447,-95.904 -54.063,-130.519c0,-0.001 -0,-0.001 -0,-0.001c-34.616,-34.616 -81.565,-54.063 -130.519,-54.063c-48.954,0 -95.903,19.447 -130.519,54.063c-287.035,287.034 -947.773,947.772 -947.773,947.772l261.039,261.039c0,-0 660.738,-660.738 947.772,-947.773Z"/></clipPath><g clip-path="url(#_clip2)"><path d="M2358.06,1109.87c0,-0 0,-0.001 0,-0.001c-16.46,-16.46 -38.784,-25.707 -62.062,-25.707c-23.278,0 -45.602,9.247 -62.062,25.707c-20.849,20.849 -44.096,44.096 -64.944,64.944c-16.46,16.46 -25.707,38.785 -25.707,62.063c-0,23.278 9.247,45.602 25.707,62.062c-0,0 -0,0 -0,0l189.068,-189.068Z" style="fill:#fbf4e2;"/></g></g></svg>